<svg xmlns="http://www.w3.org/2000/svg" viewBox="0 0 40 40" width="512" height="512">
  <circle cx="20" cy="20" r="20" fill="#8b6f47"/>
  <g transform="translate(8,8)" fill="none" stroke="#fff" stroke-width="2" stroke-linecap="round" stroke-linejoin="round">
    <path d="M2 22 16 8"/>
    <path d="M3.47 12.53 5 11l1.53 1.53a3.5 3.5 0 0 1 0 4.94L5 19l-1.53-1.53a3.5 3.5 0 0 1 0-4.94Z"/>
    <path d="M7.47 8.53 9 7l1.53 1.53a3.5 3.5 0 0 1 0 4.94L9 15l-1.53-1.53a3.5 3.5 0 0 1 0-4.94Z"/>
    <path d="M11.47 4.53 13 3l1.53 1.53a3.5 3.5 0 0 1 0 4.94L13 11l-1.53-1.53a3.5 3.5 0 0 1 0-4.94Z"/>
    <path d="M20 2h2v2a8 8 0 0 1-8 8h-2V2a8 8 0 0 1 8 8Z"/>
  </g>
</svg>
